# xmcd CD database file
#
# Track frame offsets:
#	150
#	26937
#	50018
#	71603
#	95428
#	118961
#	138961
#	160074
#	179939
#	204249
#
# Disc length: 3061 seconds
#
# Revision: 0
# Processed by: cddbd v1.5.2PL0 Copyright (c) Steve Scherf et al.
# Submitted via: CDex 1.51
#
DISCID=960bf30a
DTITLE=Bamboleo - QUIEN MANDA?
DYEAR=2010
DGENRE=Salsa
TTITLE0=A LO CUBANO
TTITLE1=SE ACABARON LOS GUAPOS EN LA HABANA
TTITLE2=VOY A SEGUIR SIN TI
TTITLE3=LA DOMADORA
TTITLE4=CHICHINA
TTITLE5=ESTA ES MI TIMBA
TTITLE6=LA FLOR DEL MAMBO
TTITLE7=QUIERO JURARTE
TTITLE8=NO ME CRITIQUEN
TTITLE9=LA QUE MANDA
EXTD=YEAR: 2010
EXTT0=
EXTT1=
EXTT2=
EXTT3=
EXTT4=
EXTT5=
EXTT6=
EXTT7=
EXTT8=
EXTT9=
PLAYORDER=
